PathFileType	3	(X/Y/Z)	F:\ViconData\AntennenMessung\Messung1\Session1\ID21.trc
DataRate	CameraRate	NumFrames	NumMarkers	Units	OrigDataRate	OrigDataStartFrame	OrigNumFrames
120.0	120.0	5	70	mm	120.0	1	1126	
Frame#	Time	Ashort			Along			Atop			A4			Bshort			Blong			Btop			B4			Cshort			Clong			Ctop			C4			Dshort			Dlong			Dtop			D4			Eshort			Elong			Etop			E4			Fshort			Flong			Ftop			F4			Gshort			Glong			Gtop			G4			Hshort			Hlong			Htop			H4			I1			I2			I3			I4			I5			WandAshort			WandAlong			WandAtop			WandA4			WandA15			WandBshort			WandB4			WandB5			WandBtop			WandBlong			WandCshort			WandClong			WandCtop			WandC4			WandC5			Acenter			Aantenna			Bcenter			Bantenna			Ccenter			Cantenna			Dcenter			Dantenna			Ecenter			Eantenna			Fcenter			Fantenna			Gcenter			Gantenna			Hcenter			Hantenna			Icenter			Iantenna			
		X1	Y1	Z1	X2	Y2	Z2	X3	Y3	Z3	X4	Y4	Z4	X5	Y5	Z5	X6	Y6	Z6	X7	Y7	Z7	X8	Y8	Z8	X9	Y9	Z9	X10	Y10	Z10	X11	Y11	Z11	X12	Y12	Z12	X13	Y13	Z13	X14	Y14	Z14	X15	Y15	Z15	X16	Y16	Z16	X17	Y17	Z17	X18	Y18	Z18	X19	Y19	Z19	X20	Y20	Z20	X21	Y21	Z21	X22	Y22	Z22	X23	Y23	Z23	X24	Y24	Z24	X25	Y25	Z25	X26	Y26	Z26	X27	Y27	Z27	X28	Y28	Z28	X29	Y29	Z29	X30	Y30	Z30	X31	Y31	Z31	X32	Y32	Z32	X33	Y33	Z33	X34	Y34	Z34	X35	Y35	Z35	X36	Y36	Z36	X37	Y37	Z37	X38	Y38	Z38	X39	Y39	Z39	X40	Y40	Z40	X41	Y41	Z41	X42	Y42	Z42	X43	Y43	Z43	X44	Y44	Z44	X45	Y45	Z45	X46	Y46	Z46	X47	Y47	Z47	X48	Y48	Z48	X49	Y49	Z49	X50	Y50	Z50	X51	Y51	Z51	X52	Y52	Z52	X53	Y53	Z53	X54	Y54	Z54	X55	Y55	Z55	X56	Y56	Z56	X57	Y57	Z57	X58	Y58	Z58	X59	Y59	Z59	X60	Y60	Z60	X61	Y61	Z61	X62	Y62	Z62	X63	Y63	Z63	X64	Y64	Z64	X65	Y65	Z65	X66	Y66	Z66	X67	Y67	Z67	X68	Y68	Z68	X69	Y69	Z69	X70	Y70	Z70	
1	0	-1038.2478	214.59727	-1644.114	-1109.3901	204.25493	-1599.3535	-1063.6493	173.16019	-1625.9296	-1054.1633	262.22345	-1634.9502	-1352.999	234.87375	1003.6458	-1281.5325	227.18636	1052.5612	-1322.7174	193.93121	1020.9203	-1284.7225	287.93567	1052.7267	813.96881	187.81476	1209.5125	892.39655	178.5909	1179.184	844.5849	145.2617	1198.3872	860.71637	292.47632	1167.9042	1115.7994	209.61804	-1401.5651	1056.2324	194.24257	-1460.4236	1094.749	161.93935	-1424.0437	1069.8242	238.72881	-1425.9855	-1204.5436	1685.9059	-1563.2416	-1129.1155	1688.3062	-1606.011	-1173.2061	1724.4644	-1581.946	-1134.0348	1580.9934	-1603.8658	-1239.7461	1699.3379	1119.6166	-1309.1659	1698.3936	1071.8375	-1270.5083	1736.4008	1096.9718	-1245.6136	1592.8364	1110.7444	988.93585	1664.2343	1162.2158	955.89368	1702.255	1181.017	922.83997	1661.9625	1215.1443	939.74237	1659.4167	1159.9464	999.02362	1668.4376	-1579.4994	1058.7549	1669.9448	-1518.7952	1024.9731	1708.0024	-1551.2358	1059.2111	1672.1722	-1585.5382	-209.2529	1637.0391	-265.6796	-216.14133	1638.3949	-181.36366	-212.86157	1674.437	-228.41028	-244.11824	1635.2961	-231.18698	-163.63354	1640.1556	-224.87982																																														-1068.4996	210.19939	-1625.0804	-1073.5623	248.85924	-1624.1941	-1321.5748	231.49355	1025.1541	-1320.3965	270.23047	1029.5203	848.28534	183.77879	1196.2421	852.00928	222.54053	1194.0834	1088.5996	202.59721	-1428.4413	1082.8005	240.94	-1432.5886	-1171.9012	1686.9446	-1581.7505	-1170.5458	1647.9688	-1581.5474	-1270.85	1698.9148	1098.2089	-1271.2052	1659.9375	1099.4954	953.58655	1704.9097	1182.3297	972.87054	1731.8457	1161.7487	1026.4011	1669.1283	-1551.6757	1027.8329	1630.1571	-1552.1167	-212.34946	1637.6484	-227.77679	-211.80672	1598.6581	-227.10542
2	0.0083333333	-1038.2457	214.6033	-1644.1285	-1109.3915	204.23904	-1599.3129	-1063.6128	173.2141	-1625.9061	-1054.1481	262.21176	-1634.9147	-1352.9164	234.89569	1003.6426	-1281.4486	227.13858	1052.577	-1322.6936	193.9838	1020.9099	-1284.7616	287.94235	1052.7484	813.93744	187.81	1209.5006	892.39954	178.63759	1179.1471	844.60577	145.24651	1198.3668	860.8468	292.40991	1168.1553	1115.8213	209.64511	-1401.6036	1056.0962	194.07556	-1460.3462	1094.865	163.50874	-1424.9298	1069.8411	238.74425	-1425.9493	-1204.5509	1685.9006	-1563.2223	-1129.1166	1688.3179	-1606.0122	-1173.1934	1724.4535	-1581.9266	-1134.026	1581.0035	-1603.8772	-1239.7792	1699.3749	1119.6355	-1309.1416	1698.3811	1071.8192	-1270.4894	1736.3773	1096.9574	-1245.4637	1592.7098	1110.7482	988.89038	1664.1957	1162.2151	955.93726	1702.3192	1181.0669	922.86975	1661.9116	1215.1167	939.73065	1659.4509	1159.9049	999.0199	1668.4357	-1579.502	1058.7404	1669.9277	-1518.7902	1024.9619	1708.0073	-1551.2367	1059.2009	1672.167	-1585.5343	-209.25288	1637.033	-265.68207	-216.10696	1638.4119	-181.35434	-212.85225	1674.4298	-228.4081	-244.12585	1635.3007	-231.18222	-163.63303	1640.1755	-224.89143																																														-1068.4818	210.19859	-1625.0824	-1073.5708	248.85555	-1624.2216	-1321.5194	231.48785	1025.1401	-1320.3066	270.22336	1029.5094	848.27972	183.7953	1196.2151	851.97424	222.55956	1194.0511	1088.3436	202.48203	-1428.6292	1081.9353	240.7798	-1432.2644	-1171.8905	1686.9473	-1581.7488	-1170.5367	1647.9712	-1581.5638	-1270.83	1698.9299	1098.2299	-1271.1844	1659.9541	1099.5544	953.7619	1704.8359	1182.3112	973.12109	1731.7354	1161.7529	1026.3857	1669.1194	-1551.6818	1027.8129	1630.1479	-1552.1277	-212.33475	1637.6528	-227.76471	-211.78612	1598.6627	-227.08261
3	0.016666667	-1038.2327	214.58952	-1644.1421	-1109.3802	204.20197	-1599.3119	-1063.6733	172.57303	-1625.5883	-1054.1548	262.19711	-1634.9218	-1352.9202	234.90535	1003.558	-1281.452	227.17656	1052.4768	-1322.688	193.97523	1020.8558	-1284.714	287.91602	1052.7345	813.89948	187.8557	1209.463	892.24719	178.73006	1179.1656	844.58765	145.20328	1198.441	860.81122	292.41089	1168.0753	1115.8231	209.63924	-1401.6309	1056.1094	194.08321	-1460.3793	1094.9081	163.6537	-1424.9161	1069.8357	238.73756	-1425.9587	-1204.5422	1685.8999	-1563.2269	-1129.1165	1688.2892	-1606.0046	-1173.1798	1724.4603	-1581.9403	-1134.0358	1580.9955	-1603.8887	-1239.7644	1699.3544	1119.6283	-1309.4597	1698.8965	1072.0012	-1270.4694	1736.3428	1096.944	-1245.4661	1592.718	1110.7495	988.9024	1664.2086	1162.2377	955.95569	1702.2395	1181.0743	922.72809	1661.9795	1215.0674	939.71741	1659.4083	1159.9479	999.02704	1668.4375	-1579.4989	1058.7294	1669.9285	-1518.788	1024.9669	1708.0004	-1551.2362	1059.2025	1672.1615	-1585.5405	-209.25699	1637.0262	-265.68927	-216.13924	1638.4059	-181.3544	-212.8571	1674.4309	-228.40306	-244.11295	1635.2924	-231.18683	-163.64049	1640.1577	-224.89719																																														-1068.7372	210.13585	-1624.9211	-1073.9467	248.78024	-1624.2347	-1321.5066	231.50818	1025.0599	-1320.2875	270.24683	1029.3993	848.21991	183.85815	1196.191	851.86249	222.62209	1193.9348	1088.412	202.49832	-1428.5989	1082.007	240.79706	-1432.2299	-1171.8829	1686.9343	-1581.7494	-1170.5359	1647.9581	-1581.5514	-1271.0953	1699.1486	1098.2179	-1271.7515	1660.1769	1099.5526	953.62793	1704.9263	1182.4052	973.00946	1731.864	1161.9183	1026.3864	1669.1207	-1551.6772	1027.8092	1630.1492	-1552.1194	-212.35225	1637.6467	-227.76003	-211.81712	1598.6562	-227.07846
4	0.025	-1038.2623	214.61177	-1644.1226	-1109.3889	204.24901	-1599.3051	-1063.7195	172.59221	-1625.526	-1054.1436	262.2074	-1634.9259	-1352.9792	235.05684	1003.6307	-1281.479	227.17667	1052.5132	-1322.7408	193.89891	1020.9428	-1284.677	287.96317	1052.6805	813.91498	187.881	1209.4952	892.47119	178.66765	1179.1481	844.53491	145.21474	1198.4731	860.76569	292.48712	1167.9033	1115.7963	209.62587	-1401.5631	1056.0898	194.04996	-1460.3513	1094.8722	163.46808	-1424.8817	1069.8285	238.73735	-1425.9517	-1204.5457	1685.899	-1563.215	-1129.1088	1688.3031	-1606.0148	-1173.1898	1724.4447	-1581.9403	-1134.0328	1580.9917	-1603.8816	-1239.7802	1699.3723	1119.6333	-1308.9528	1698.1427	1071.7518	-1270.6543	1736.6294	1097.0509	-1245.4534	1592.6868	1110.7489	988.88525	1664.1887	1162.2214	955.82294	1702.2692	1180.9866	922.88312	1661.8846	1215.1613	939.73376	1659.4152	1159.9351	999.01306	1668.4291	-1579.5021	1058.7424	1669.9331	-1518.8	1024.9612	1707.9955	-1551.233	1059.2052	1672.1666	-1585.5494	-209.25832	1637.0222	-265.68228	-216.14169	1638.4093	-181.3503	-212.85953	1674.4323	-228.4019	-244.10681	1635.3044	-231.18192	-163.65166	1640.172	-224.89427																																														-1068.7905	210.16396	-1624.8864	-1074.0063	248.80801	-1624.2288	-1321.4762	231.58482	1025.1683	-1320.1764	270.3204	1029.5116	848.20752	183.85904	1196.2476	851.8913	222.62044	1194.0153	1088.3486	202.46547	-1428.5885	1081.9423	240.76305	-1432.2289	-1171.8842	1686.9398	-1581.7456	-1170.5275	1647.9639	-1581.5435	-1270.7667	1698.8214	1098.1843	-1270.8827	1659.839	1099.3528	953.62476	1704.8009	1182.234	972.89459	1731.7021	1161.5942	1026.3917	1669.1184	-1551.6775	1027.8257	1630.1473	-1552.1229	-212.35397	1637.646	-227.75562	-211.81815	1598.6558	-227.07063
5	0.033333333	-1038.236	214.58455	-1644.1243	-1109.3943	204.23642	-1599.3129	-1063.6689	173.2141	-1625.8395	-1054.1517	262.23694	-1634.9247	-1352.985	234.87253	1003.6575	-1281.4725	227.18491	1052.5286	-1322.6881	193.9886	1020.8899	-1284.7039	287.97327	1052.6827	813.97858	187.74939	1209.5879	892.42712	178.65692	1179.1754	844.16071	145.57867	1198.3352	860.76666	292.50281	1168.0333	1115.7905	209.62216	-1401.5546	1056.2307	194.25813	-1460.4216	1094.6505	161.82439	-1423.9844	1069.8555	238.71559	-1425.9343	-1204.5458	1685.9086	-1563.2073	-1129.1206	1688.2906	-1606.0076	-1173.1982	1724.4659	-1581.9375	-1134.03	1581.001	-1603.9093	-1239.7788	1699.3788	1119.6315	-1309.4603	1698.8939	1072.0089	-1270.6093	1736.5674	1097.0289	-1245.5044	1592.7592	1110.7539	988.90472	1664.2089	1162.2289	955.94946	1702.2136	1181.0483	922.90643	1661.9469	1215.1763	939.73645	1659.4591	1159.9524	998.99005	1668.4479	-1579.511	1058.739	1669.936	-1518.7848	1024.9546	1708.0038	-1551.2252	1059.2007	1672.1611	-1585.5414	-209.25932	1637.0277	-265.67697	-216.14677	1638.4133	-181.34938	-212.8719	1674.4384	-228.39781	-244.12364	1635.3025	-231.18799	-163.63747	1640.1827	-224.87997																																														-1068.5409	210.17746	-1625.0399	-1073.636	248.83418	-1624.2039	-1321.5573	231.49402	1025.1349	-1320.3894	270.22919	1029.5193	847.8631	183.82204	1196.4517	851.6167	222.59399	1194.5422	1088.5621	202.59836	-1428.4662	1082.8363	240.94479	-1432.681	-1171.8973	1686.9396	-1581.7336	-1170.5461	1647.9635	-1581.5219	-1271.1455	1699.1604	1098.1943	-1271.7042	1660.1833	1099.4087	953.65454	1704.8602	1182.3589	972.94598	1731.7843	1161.7693	1026.379	1669.13	-1551.674	1027.8071	1630.1588	-1552.124	-212.35689	1637.6509	-227.75133	-211.81102	1598.6608	-227.06615
